{
  "accessors": [
    {
      "name": "L-putamen_putamen-Mesh_0_positions",
      "componentType": 5126,
      "count": 1883,
      "min": [
        -47.83503723144531,
        -1.731389045715332,
        20.90045166015625
      ],
      "max": [
        17.00719451904297,
        31.54005241394043,
        44.08171463012695
      ],
      "type": "VEC3",
      "bufferView": 0,
      "byteOffset": 0
    },
    {
      "name": "L-putamen_putamen-Mesh_0_normals",
      "componentType": 5126,
      "count": 1883,
      "min": [
        -0.9973312020301819,
        -0.9999405741691589,
        -0.9970040917396545
      ],
      "max": [
        0.9831826090812683,
        0.9999865293502808,
        0.9996950030326843
      ],
      "type": "VEC3",
      "bufferView": 1,
      "byteOffset": 0
    },
    {
      "name": "L-putamen_putamen-Mesh_0_indices",
      "componentType": 5123,
      "count": 11286,
      "min": [
        0
      ],
      "max": [
        1882
      ],
      "type": "SCALAR",
      "bufferView": 2,
      "byteOffset": 0
    }
  ],
  "asset": {
    "generator": "obj2gltf",
    "version": "2.0"
  },
  "buffers": [
    {
      "name": "L-Putamen",
      "byteLength": 67764,
      "uri": "data:application/octet-stream;base64,"
    }
  ],
  "bufferViews": [
    {
      "name": "bufferView_0",
      "buffer": 0,
      "byteLength": 22596,
      "byteOffset": 0,
      "byteStride": 12,
      "target": 34962
    },
    {
      "name": "bufferView_1",
      "buffer": 0,
      "byteLength": 22596,
      "byteOffset": 22596,
      "byteStride": 12,
      "target": 34962
    },
    {
      "name": "bufferView_2",
      "buffer": 0,
      "byteLength": 22572,
      "byteOffset": 45192,
      "target": 34963
    }
  ],
  "materials": [
    {
      "name": "None.004",
      "pbrMetallicRoughness": {
        "baseColorFactor": [
          0.64,
          0.64,
          0.64,
          1
        ],
        "metallicFactor": 0,
        "roughnessFactor": 0.905882353
      },
      "emissiveFactor": [
        0,
        0,
        0
      ],
      "alphaMode": "OPAQUE",
      "doubleSided": false
    }
  ],
  "meshes": [
    {
      "name": "L-putamen_putamen-Mesh",
      "primitives": [
        {
          "attributes": {
            "POSITION": 0,
            "NORMAL": 1
          },
          "indices": 2,
          "material": 0,
          "mode": 4
        }
      ]
    }
  ],
  "nodes": [
    {
      "name": "L-putamen_putamen",
      "mesh": 0
    }
  ],
  "scene": 0,
  "scenes": [
    {
      "nodes": [
        0
      ]
    }
  ]
}
