{
  "accessors": [
    {
      "name": "L-globus_LEFT-globus-Mesh_0_positions",
      "componentType": 5126,
      "count": 894,
      "min": [
        -29.99127960205078,
        2.0380759239196777,
        13.876542091369629
      ],
      "max": [
        -4.4886250495910645,
        21.043310165405273,
        32.00918960571289
      ],
      "type": "VEC3",
      "bufferView": 0,
      "byteOffset": 0
    },
    {
      "name": "L-globus_LEFT-globus-Mesh_0_normals",
      "componentType": 5126,
      "count": 894,
      "min": [
        -0.999259352684021,
        -0.9951261878013611,
        -0.9974342584609985
      ],
      "max": [
        0.9896363615989685,
        0.992769181728363,
        0.999817967414856
      ],
      "type": "VEC3",
      "bufferView": 1,
      "byteOffset": 0
    },
    {
      "name": "L-globus_LEFT-globus-Mesh_0_indices",
      "componentType": 5123,
      "count": 5352,
      "min": [
        0
      ],
      "max": [
        893
      ],
      "type": "SCALAR",
      "bufferView": 2,
      "byteOffset": 0
    }
  ],
  "asset": {
    "generator": "obj2gltf",
    "version": "2.0"
  },
  "buffers": [
    {
      "name": "L-Globus",
      "byteLength": 32160,
      "uri": "data:application/octet-stream;base64,"
    }
  ],
  "bufferViews": [
    {
      "name": "bufferView_0",
      "buffer": 0,
      "byteLength": 10728,
      "byteOffset": 0,
      "byteStride": 12,
      "target": 34962
    },
    {
      "name": "bufferView_1",
      "buffer": 0,
      "byteLength": 10728,
      "byteOffset": 10728,
      "byteStride": 12,
      "target": 34962
    },
    {
      "name": "bufferView_2",
      "buffer": 0,
      "byteLength": 10704,
      "byteOffset": 21456,
      "target": 34963
    }
  ],
  "materials": [
    {
      "name": "None.005",
      "pbrMetallicRoughness": {
        "baseColorFactor": [
          0.64,
          0.64,
          0.64,
          1
        ],
        "metallicFactor": 0,
        "roughnessFactor": 0.905882353
      },
      "emissiveFactor": [
        0,
        0,
        0
      ],
      "alphaMode": "OPAQUE",
      "doubleSided": false
    }
  ],
  "meshes": [
    {
      "name": "L-globus_LEFT-globus-Mesh",
      "primitives": [
        {
          "attributes": {
            "POSITION": 0,
            "NORMAL": 1
          },
          "indices": 2,
          "material": 0,
          "mode": 4
        }
      ]
    }
  ],
  "nodes": [
    {
      "name": "L-globus_LEFT-globus",
      "mesh": 0
    }
  ],
  "scene": 0,
  "scenes": [
    {
      "nodes": [
        0
      ]
    }
  ]
}
