{
  "accessors": [
    {
      "name": "Cerebellum_cerebellum.001-Mesh_0_positions",
      "componentType": 5126,
      "count": 10361,
      "min": [
        14.844165802001953,
        -74.35627746582031,
        -80.4988784790039
      ],
      "max": [
        111.505615234375,
        4.678454875946045,
        80.1252670288086
      ],
      "type": "VEC3",
      "bufferView": 0,
      "byteOffset": 0
    },
    {
      "name": "Cerebellum_cerebellum.001-Mesh_0_normals",
      "componentType": 5126,
      "count": 10361,
      "min": [
        -1,
        -0.9993288516998291,
        -1
      ],
      "max": [
        1,
        0.9999322891235352,
        1
      ],
      "type": "VEC3",
      "bufferView": 1,
      "byteOffset": 0
    },
    {
      "name": "Cerebellum_cerebellum.001-Mesh_0_indices",
      "componentType": 5123,
      "count": 63363,
      "min": [
        0
      ],
      "max": [
        10360
      ],
      "type": "SCALAR",
      "bufferView": 2,
      "byteOffset": 0
    }
  ],
  "asset": {
    "generator": "obj2gltf",
    "version": "2.0"
  },
  "buffers": [
    {
      "name": "cerebellum",
      "byteLength": 375392,
      "uri": "data:application/octet-stream;base64,"
    }
  ],
  "bufferViews": [
    {
      "name": "bufferView_0",
      "buffer": 0,
      "byteLength": 124332,
      "byteOffset": 0,
      "byteStride": 12,
      "target": 34962
    },
    {
      "name": "bufferView_1",
      "buffer": 0,
      "byteLength": 124332,
      "byteOffset": 124332,
      "byteStride": 12,
      "target": 34962
    },
    {
      "name": "bufferView_2",
      "buffer": 0,
      "byteLength": 126728,
      "byteOffset": 248664,
      "target": 34963
    }
  ],
  "materials": [
    {
      "name": "Material.009",
      "pbrMetallicRoughness": {
        "baseColorFactor": [
          0.64,
          0.64,
          0.64,
          1
        ],
        "metallicFactor": 0,
        "roughnessFactor": 0.903921569
      },
      "emissiveFactor": [
        0,
        0,
        0
      ],
      "alphaMode": "OPAQUE",
      "doubleSided": false
    }
  ],
  "meshes": [
    {
      "name": "Cerebellum_cerebellum.001-Mesh",
      "primitives": [
        {
          "attributes": {
            "POSITION": 0,
            "NORMAL": 1
          },
          "indices": 2,
          "material": 0,
          "mode": 4
        }
      ]
    }
  ],
  "nodes": [
    {
      "name": "Cerebellum_cerebellum.001",
      "mesh": 0
    }
  ],
  "scene": 0,
  "scenes": [
    {
      "nodes": [
        0
      ]
    }
  ]
}
