{
  "accessors": [
    {
      "name": "L-amygdala_amygdala.001-Mesh_0_positions",
      "componentType": 5126,
      "count": 702,
      "min": [
        -26.102516174316406,
        -30.465932846069336,
        22.43995475769043
      ],
      "max": [
        -3.8835530281066895,
        -1.8231409788131714,
        38.95664596557617
      ],
      "type": "VEC3",
      "bufferView": 0,
      "byteOffset": 0
    },
    {
      "name": "L-amygdala_amygdala.001-Mesh_0_normals",
      "componentType": 5126,
      "count": 702,
      "min": [
        -0.99892657995224,
        -0.9981093406677246,
        -0.9990406632423401
      ],
      "max": [
        0.984792172908783,
        0.9916564226150513,
        0.9999880790710449
      ],
      "type": "VEC3",
      "bufferView": 1,
      "byteOffset": 0
    },
    {
      "name": "L-amygdala_amygdala.001-Mesh_0_indices",
      "componentType": 5123,
      "count": 4185,
      "min": [
        0
      ],
      "max": [
        701
      ],
      "type": "SCALAR",
      "bufferView": 2,
      "byteOffset": 0
    }
  ],
  "asset": {
    "generator": "obj2gltf",
    "version": "2.0"
  },
  "buffers": [
    {
      "name": "L-Amygdala",
      "byteLength": 25220,
      "uri": "data:application/octet-stream;base64,"
    }
  ],
  "bufferViews": [
    {
      "name": "bufferView_0",
      "buffer": 0,
      "byteLength": 8424,
      "byteOffset": 0,
      "byteStride": 12,
      "target": 34962
    },
    {
      "name": "bufferView_1",
      "buffer": 0,
      "byteLength": 8424,
      "byteOffset": 8424,
      "byteStride": 12,
      "target": 34962
    },
    {
      "name": "bufferView_2",
      "buffer": 0,
      "byteLength": 8372,
      "byteOffset": 16848,
      "target": 34963
    }
  ],
  "materials": [
    {
      "name": "None.008",
      "pbrMetallicRoughness": {
        "baseColorFactor": [
          0.64,
          0.64,
          0.64,
          1
        ],
        "metallicFactor": 0,
        "roughnessFactor": 0.905882353
      },
      "emissiveFactor": [
        0,
        0,
        0
      ],
      "alphaMode": "OPAQUE",
      "doubleSided": false
    }
  ],
  "meshes": [
    {
      "name": "L-amygdala_amygdala.001-Mesh",
      "primitives": [
        {
          "attributes": {
            "POSITION": 0,
            "NORMAL": 1
          },
          "indices": 2,
          "material": 0,
          "mode": 4
        }
      ]
    }
  ],
  "nodes": [
    {
      "name": "L-amygdala_amygdala.001",
      "mesh": 0
    }
  ],
  "scene": 0,
  "scenes": [
    {
      "nodes": [
        0
      ]
    }
  ]
}
