{
  "accessors": [
    {
      "name": "Substantia-nigra_substantia-nigra-Mesh_0_positions",
      "componentType": 5126,
      "count": 1558,
      "min": [
        -6.14776611328125,
        -10.940055847167969,
        -21.663070678710938
      ],
      "max": [
        13.890838623046875,
        -2.0938680171966553,
        19.961624145507812
      ],
      "type": "VEC3",
      "bufferView": 0,
      "byteOffset": 0
    },
    {
      "name": "Substantia-nigra_substantia-nigra-Mesh_0_normals",
      "componentType": 5126,
      "count": 1558,
      "min": [
        -0.9869751930236816,
        -0.9996368288993835,
        -0.9984944462776184
      ],
      "max": [
        0.9993420243263245,
        0.9997620582580566,
        0.9997847080230713
      ],
      "type": "VEC3",
      "bufferView": 1,
      "byteOffset": 0
    },
    {
      "name": "Substantia-nigra_substantia-nigra-Mesh_0_indices",
      "componentType": 5123,
      "count": 9324,
      "min": [
        0
      ],
      "max": [
        1557
      ],
      "type": "SCALAR",
      "bufferView": 2,
      "byteOffset": 0
    }
  ],
  "asset": {
    "generator": "obj2gltf",
    "version": "2.0"
  },
  "buffers": [
    {
      "name": "Substantia-Nigra",
      "byteLength": 56040,
      "uri": "data:application/octet-stream;base64,"
    }
  ],
  "bufferViews": [
    {
      "name": "bufferView_0",
      "buffer": 0,
      "byteLength": 18696,
      "byteOffset": 0,
      "byteStride": 12,
      "target": 34962
    },
    {
      "name": "bufferView_1",
      "buffer": 0,
      "byteLength": 18696,
      "byteOffset": 18696,
      "byteStride": 12,
      "target": 34962
    },
    {
      "name": "bufferView_2",
      "buffer": 0,
      "byteLength": 18648,
      "byteOffset": 37392,
      "target": 34963
    }
  ],
  "materials": [
    {
      "name": "None.013",
      "pbrMetallicRoughness": {
        "baseColorFactor": [
          0.64,
          0.64,
          0.64,
          1
        ],
        "metallicFactor": 0,
        "roughnessFactor": 0.905882353
      },
      "emissiveFactor": [
        0,
        0,
        0
      ],
      "alphaMode": "OPAQUE",
      "doubleSided": false
    }
  ],
  "meshes": [
    {
      "name": "Substantia-nigra_substantia-nigra-Mesh",
      "primitives": [
        {
          "attributes": {
            "POSITION": 0,
            "NORMAL": 1
          },
          "indices": 2,
          "material": 0,
          "mode": 4
        }
      ]
    }
  ],
  "nodes": [
    {
      "name": "Substantia-nigra_substantia-nigra",
      "mesh": 0
    }
  ],
  "scene": 0,
  "scenes": [
    {
      "nodes": [
        0
      ]
    }
  ]
}
