{
  "accessors": [
    {
      "name": "R-amygdala_amygdala.001-Mesh_0_positions",
      "componentType": 5126,
      "count": 605,
      "min": [
        -25.2974853515625,
        -32.40137481689453,
        -46.29024887084961
      ],
      "max": [
        -2.937195062637329,
        -3.2548749446868896,
        -31.0341739654541
      ],
      "type": "VEC3",
      "bufferView": 0,
      "byteOffset": 0
    },
    {
      "name": "R-amygdala_amygdala.001-Mesh_0_normals",
      "componentType": 5126,
      "count": 605,
      "min": [
        -0.997225821018219,
        -0.9895451664924622,
        -0.9999402165412903
      ],
      "max": [
        0.9994046092033386,
        0.9983819127082825,
        0.9996670484542847
      ],
      "type": "VEC3",
      "bufferView": 1,
      "byteOffset": 0
    },
    {
      "name": "R-amygdala_amygdala.001-Mesh_0_indices",
      "componentType": 5123,
      "count": 3612,
      "min": [
        0
      ],
      "max": [
        604
      ],
      "type": "SCALAR",
      "bufferView": 2,
      "byteOffset": 0
    }
  ],
  "asset": {
    "generator": "obj2gltf",
    "version": "2.0"
  },
  "buffers": [
    {
      "name": "R-Amygdala",
      "byteLength": 21744,
      "uri": "data:application/octet-stream;base64,"
    }
  ],
  "bufferViews": [
    {
      "name": "bufferView_0",
      "buffer": 0,
      "byteLength": 7260,
      "byteOffset": 0,
      "byteStride": 12,
      "target": 34962
    },
    {
      "name": "bufferView_1",
      "buffer": 0,
      "byteLength": 7260,
      "byteOffset": 7260,
      "byteStride": 12,
      "target": 34962
    },
    {
      "name": "bufferView_2",
      "buffer": 0,
      "byteLength": 7224,
      "byteOffset": 14520,
      "target": 34963
    }
  ],
  "materials": [
    {
      "name": "Material.002",
      "pbrMetallicRoughness": {
        "baseColorFactor": [
          0.64,
          0.64,
          0.64,
          1
        ],
        "metallicFactor": 0,
        "roughnessFactor": 0.905882353
      },
      "emissiveFactor": [
        0,
        0,
        0
      ],
      "alphaMode": "OPAQUE",
      "doubleSided": false
    }
  ],
  "meshes": [
    {
      "name": "R-amygdala_amygdala.001-Mesh",
      "primitives": [
        {
          "attributes": {
            "POSITION": 0,
            "NORMAL": 1
          },
          "indices": 2,
          "material": 0,
          "mode": 4
        }
      ]
    }
  ],
  "nodes": [
    {
      "name": "R-amygdala_amygdala.001",
      "mesh": 0
    }
  ],
  "scene": 0,
  "scenes": [
    {
      "nodes": [
        0
      ]
    }
  ]
}
