{
  "accessors": [
    {
      "name": "Mamillothalamic-tract_mamillothalamic-tract-Mesh_0_positions",
      "componentType": 5126,
      "count": 361,
      "min": [
        -11.399635314941406,
        -4.997255802154541,
        -7.420126914978027
      ],
      "max": [
        -2.2247390747070312,
        8.714505195617676,
        4.344307899475098
      ],
      "type": "VEC3",
      "bufferView": 0,
      "byteOffset": 0
    },
    {
      "name": "Mamillothalamic-tract_mamillothalamic-tract-Mesh_0_normals",
      "componentType": 5126,
      "count": 361,
      "min": [
        -0.991275429725647,
        -0.9908619523048401,
        -0.9982811808586121
      ],
      "max": [
        0.9922919273376465,
        0.9938746690750122,
        0.9958149194717407
      ],
      "type": "VEC3",
      "bufferView": 1,
      "byteOffset": 0
    },
    {
      "name": "Mamillothalamic-tract_mamillothalamic-tract-Mesh_0_indices",
      "componentType": 5123,
      "count": 2142,
      "min": [
        0
      ],
      "max": [
        360
      ],
      "type": "SCALAR",
      "bufferView": 2,
      "byteOffset": 0
    }
  ],
  "asset": {
    "generator": "obj2gltf",
    "version": "2.0"
  },
  "buffers": [
    {
      "name": "MamilloThalamicTract",
      "byteLength": 12948,
      "uri": "data:application/octet-stream;base64,"
    }
  ],
  "bufferViews": [
    {
      "name": "bufferView_0",
      "buffer": 0,
      "byteLength": 4332,
      "byteOffset": 0,
      "byteStride": 12,
      "target": 34962
    },
    {
      "name": "bufferView_1",
      "buffer": 0,
      "byteLength": 4332,
      "byteOffset": 4332,
      "byteStride": 12,
      "target": 34962
    },
    {
      "name": "bufferView_2",
      "buffer": 0,
      "byteLength": 4284,
      "byteOffset": 8664,
      "target": 34963
    }
  ],
  "materials": [
    {
      "name": "None.003",
      "pbrMetallicRoughness": {
        "baseColorFactor": [
          0.64,
          0.64,
          0.64,
          1
        ],
        "metallicFactor": 0,
        "roughnessFactor": 0.905882353
      },
      "emissiveFactor": [
        0,
        0,
        0
      ],
      "alphaMode": "OPAQUE",
      "doubleSided": false
    }
  ],
  "meshes": [
    {
      "name": "Mamillothalamic-tract_mamillothalamic-tract-Mesh",
      "primitives": [
        {
          "attributes": {
            "POSITION": 0,
            "NORMAL": 1
          },
          "indices": 2,
          "material": 0,
          "mode": 4
        }
      ]
    }
  ],
  "nodes": [
    {
      "name": "Mamillothalamic-tract_mamillothalamic-tract",
      "mesh": 0
    }
  ],
  "scene": 0,
  "scenes": [
    {
      "nodes": [
        0
      ]
    }
  ]
}
