{
  "accessors": [
    {
      "name": "R-putamen_putamen.001-Mesh_0_positions",
      "componentType": 5126,
      "count": 1961,
      "min": [
        -48.47577667236328,
        -2.3915140628814697,
        -43.96730041503906
      ],
      "max": [
        16.178565979003906,
        31.60344886779785,
        -17.892929077148438
      ],
      "type": "VEC3",
      "bufferView": 0,
      "byteOffset": 0
    },
    {
      "name": "R-putamen_putamen.001-Mesh_0_normals",
      "componentType": 5126,
      "count": 1961,
      "min": [
        -0.9870133996009827,
        -0.9975292682647705,
        -0.9995275139808655
      ],
      "max": [
        0.9990096092224121,
        0.9979509115219116,
        0.9950063824653625
      ],
      "type": "VEC3",
      "bufferView": 1,
      "byteOffset": 0
    },
    {
      "name": "R-putamen_putamen.001-Mesh_0_indices",
      "componentType": 5123,
      "count": 11745,
      "min": [
        0
      ],
      "max": [
        1960
      ],
      "type": "SCALAR",
      "bufferView": 2,
      "byteOffset": 0
    }
  ],
  "asset": {
    "generator": "obj2gltf",
    "version": "2.0"
  },
  "buffers": [
    {
      "name": "R-Putamen",
      "byteLength": 70556,
      "uri": "data:application/octet-stream;base64,"
    }
  ],
  "bufferViews": [
    {
      "name": "bufferView_0",
      "buffer": 0,
      "byteLength": 23532,
      "byteOffset": 0,
      "byteStride": 12,
      "target": 34962
    },
    {
      "name": "bufferView_1",
      "buffer": 0,
      "byteLength": 23532,
      "byteOffset": 23532,
      "byteStride": 12,
      "target": 34962
    },
    {
      "name": "bufferView_2",
      "buffer": 0,
      "byteLength": 23492,
      "byteOffset": 47064,
      "target": 34963
    }
  ],
  "materials": [
    {
      "name": "None",
      "pbrMetallicRoughness": {
        "baseColorFactor": [
          0.64,
          0.64,
          0.64,
          1
        ],
        "metallicFactor": 0,
        "roughnessFactor": 0.905882353
      },
      "emissiveFactor": [
        0,
        0,
        0
      ],
      "alphaMode": "OPAQUE",
      "doubleSided": false
    }
  ],
  "meshes": [
    {
      "name": "R-putamen_putamen.001-Mesh",
      "primitives": [
        {
          "attributes": {
            "POSITION": 0,
            "NORMAL": 1
          },
          "indices": 2,
          "material": 0,
          "mode": 4
        }
      ]
    }
  ],
  "nodes": [
    {
      "name": "R-putamen_putamen.001",
      "mesh": 0
    }
  ],
  "scene": 0,
  "scenes": [
    {
      "nodes": [
        0
      ]
    }
  ]
}
