{
  "accessors": [
    {
      "name": "Subthalamic-nuclei_subthalamic-nuclei.001-Mesh_0_positions",
      "componentType": 5126,
      "count": 370,
      "min": [
        -2.063910961151123,
        -3.6806631088256836,
        -11.786033630371094
      ],
      "max": [
        2.8803019523620605,
        1.493054986000061,
        9.447990417480469
      ],
      "type": "VEC3",
      "bufferView": 0,
      "byteOffset": 0
    },
    {
      "name": "Subthalamic-nuclei_subthalamic-nuclei.001-Mesh_0_normals",
      "componentType": 5126,
      "count": 370,
      "min": [
        -0.9922272562980652,
        -0.9934748411178589,
        -0.9983606338500977
      ],
      "max": [
        0.9977556467056274,
        0.9895005226135254,
        0.9896941781044006
      ],
      "type": "VEC3",
      "bufferView": 1,
      "byteOffset": 0
    },
    {
      "name": "Subthalamic-nuclei_subthalamic-nuclei.001-Mesh_0_indices",
      "componentType": 5123,
      "count": 2196,
      "min": [
        0
      ],
      "max": [
        369
      ],
      "type": "SCALAR",
      "bufferView": 2,
      "byteOffset": 0
    }
  ],
  "asset": {
    "generator": "obj2gltf",
    "version": "2.0"
  },
  "buffers": [
    {
      "name": "Subthalamic-Nuclei",
      "byteLength": 13272,
      "uri": "data:application/octet-stream;base64,"
    }
  ],
  "bufferViews": [
    {
      "name": "bufferView_0",
      "buffer": 0,
      "byteLength": 4440,
      "byteOffset": 0,
      "byteStride": 12,
      "target": 34962
    },
    {
      "name": "bufferView_1",
      "buffer": 0,
      "byteLength": 4440,
      "byteOffset": 4440,
      "byteStride": 12,
      "target": 34962
    },
    {
      "name": "bufferView_2",
      "buffer": 0,
      "byteLength": 4392,
      "byteOffset": 8880,
      "target": 34963
    }
  ],
  "materials": [
    {
      "name": "None.012",
      "pbrMetallicRoughness": {
        "baseColorFactor": [
          0.64,
          0.64,
          0.64,
          1
        ],
        "metallicFactor": 0,
        "roughnessFactor": 0.905882353
      },
      "emissiveFactor": [
        0,
        0,
        0
      ],
      "alphaMode": "OPAQUE",
      "doubleSided": false
    }
  ],
  "meshes": [
    {
      "name": "Subthalamic-nuclei_subthalamic-nuclei.001-Mesh",
      "primitives": [
        {
          "attributes": {
            "POSITION": 0,
            "NORMAL": 1
          },
          "indices": 2,
          "material": 0,
          "mode": 4
        }
      ]
    }
  ],
  "nodes": [
    {
      "name": "Subthalamic-nuclei_subthalamic-nuclei.001",
      "mesh": 0
    }
  ],
  "scene": 0,
  "scenes": [
    {
      "nodes": [
        0
      ]
    }
  ]
}
