{
  "accessors": [
    {
      "name": "Mamillary-bodies_mamillary-bodies.001-Mesh_0_positions",
      "componentType": 5126,
      "count": 291,
      "min": [
        -12.741844177246094,
        -7.654253959655762,
        -8.78048038482666
      ],
      "max": [
        -5.046607971191406,
        -1.2907600402832031,
        5.415046215057373
      ],
      "type": "VEC3",
      "bufferView": 0,
      "byteOffset": 0
    },
    {
      "name": "Mamillary-bodies_mamillary-bodies.001-Mesh_0_normals",
      "componentType": 5126,
      "count": 291,
      "min": [
        -0.9936270117759705,
        -0.9989528059959412,
        -0.9948601722717285
      ],
      "max": [
        0.9996857643127441,
        0.9959244728088379,
        0.9896837472915649
      ],
      "type": "VEC3",
      "bufferView": 1,
      "byteOffset": 0
    },
    {
      "name": "Mamillary-bodies_mamillary-bodies.001-Mesh_0_indices",
      "componentType": 5123,
      "count": 1734,
      "min": [
        0
      ],
      "max": [
        290
      ],
      "type": "SCALAR",
      "bufferView": 2,
      "byteOffset": 0
    }
  ],
  "asset": {
    "generator": "obj2gltf",
    "version": "2.0"
  },
  "buffers": [
    {
      "name": "MammillaryBodies",
      "byteLength": 10452,
      "uri": "data:application/octet-stream;base64,"
    }
  ],
  "bufferViews": [
    {
      "name": "bufferView_0",
      "buffer": 0,
      "byteLength": 3492,
      "byteOffset": 0,
      "byteStride": 12,
      "target": 34962
    },
    {
      "name": "bufferView_1",
      "buffer": 0,
      "byteLength": 3492,
      "byteOffset": 3492,
      "byteStride": 12,
      "target": 34962
    },
    {
      "name": "bufferView_2",
      "buffer": 0,
      "byteLength": 3468,
      "byteOffset": 6984,
      "target": 34963
    }
  ],
  "materials": [
    {
      "name": "None.001",
      "pbrMetallicRoughness": {
        "baseColorFactor": [
          0.64,
          0.64,
          0.64,
          1
        ],
        "metallicFactor": 0,
        "roughnessFactor": 0.905882353
      },
      "emissiveFactor": [
        0,
        0,
        0
      ],
      "alphaMode": "OPAQUE",
      "doubleSided": false
    }
  ],
  "meshes": [
    {
      "name": "Mamillary-bodies_mamillary-bodies.001-Mesh",
      "primitives": [
        {
          "attributes": {
            "POSITION": 0,
            "NORMAL": 1
          },
          "indices": 2,
          "material": 0,
          "mode": 4
        }
      ]
    }
  ],
  "nodes": [
    {
      "name": "Mamillary-bodies_mamillary-bodies.001",
      "mesh": 0
    }
  ],
  "scene": 0,
  "scenes": [
    {
      "nodes": [
        0
      ]
    }
  ]
}
