{
  "accessors": [
    {
      "name": "R-globus_LEFT-globus.000-Mesh_0_positions",
      "componentType": 5126,
      "count": 919,
      "min": [
        -29.08448028564453,
        0.8750159740447998,
        -33.56797790527344
      ],
      "max": [
        -3.659248113632202,
        19.839982986450195,
        -14.931883811950684
      ],
      "type": "VEC3",
      "bufferView": 0,
      "byteOffset": 0
    },
    {
      "name": "R-globus_LEFT-globus.000-Mesh_0_normals",
      "componentType": 5126,
      "count": 919,
      "min": [
        -0.9972466230392456,
        -0.9916969537734985,
        -0.9974101185798645
      ],
      "max": [
        0.9961237907409668,
        0.9935083985328674,
        0.9967255592346191
      ],
      "type": "VEC3",
      "bufferView": 1,
      "byteOffset": 0
    },
    {
      "name": "R-globus_LEFT-globus.000-Mesh_0_indices",
      "componentType": 5123,
      "count": 5502,
      "min": [
        0
      ],
      "max": [
        918
      ],
      "type": "SCALAR",
      "bufferView": 2,
      "byteOffset": 0
    }
  ],
  "asset": {
    "generator": "obj2gltf",
    "version": "2.0"
  },
  "buffers": [
    {
      "name": "R-Globus",
      "byteLength": 33060,
      "uri": "data:application/octet-stream;base64,"
    }
  ],
  "bufferViews": [
    {
      "name": "bufferView_0",
      "buffer": 0,
      "byteLength": 11028,
      "byteOffset": 0,
      "byteStride": 12,
      "target": 34962
    },
    {
      "name": "bufferView_1",
      "buffer": 0,
      "byteLength": 11028,
      "byteOffset": 11028,
      "byteStride": 12,
      "target": 34962
    },
    {
      "name": "bufferView_2",
      "buffer": 0,
      "byteLength": 11004,
      "byteOffset": 22056,
      "target": 34963
    }
  ],
  "materials": [
    {
      "name": "None.007",
      "pbrMetallicRoughness": {
        "baseColorFactor": [
          0.64,
          0.64,
          0.64,
          1
        ],
        "metallicFactor": 0,
        "roughnessFactor": 0.905882353
      },
      "emissiveFactor": [
        0,
        0,
        0
      ],
      "alphaMode": "OPAQUE",
      "doubleSided": false
    }
  ],
  "meshes": [
    {
      "name": "R-globus_LEFT-globus.000-Mesh",
      "primitives": [
        {
          "attributes": {
            "POSITION": 0,
            "NORMAL": 1
          },
          "indices": 2,
          "material": 0,
          "mode": 4
        }
      ]
    }
  ],
  "nodes": [
    {
      "name": "R-globus_LEFT-globus.000",
      "mesh": 0
    }
  ],
  "scene": 0,
  "scenes": [
    {
      "nodes": [
        0
      ]
    }
  ]
}
