# Blender v2.79 (sub 0) OBJ File: ''
# www.blender.org
mtllib spooky_room.mtl
o Cube
v 1.000000 -0.000704 -1.000000
v 1.000000 -0.000704 1.000000
v -1.000000 -0.000704 1.000000
v -1.000000 -0.000704 -1.000000
v 1.000000 11.776640 -1.000000
v 0.999999 11.776640 1.000001
v -1.000000 11.776640 1.000000
v -1.000000 11.776640 -1.000000
v 1.005774 -0.034703 -1.005774
v 1.005774 -0.034703 1.005774
v -1.005774 -0.034703 1.005773
v -1.005773 -0.034703 -1.005774
v 1.005774 11.810638 -1.005773
v 1.005773 11.810638 1.005774
v -1.005774 11.810638 1.005773
v -1.005773 11.810638 -1.005774
v -0.145580 0.498732 1.005773
v -0.145580 0.498732 1.000000
v 0.162245 0.004649 1.005773
v 0.162245 0.004649 1.000000
v 0.163138 0.500167 1.005773
v 0.163138 0.500167 1.000000
v -0.145580 0.004649 1.005773
v -0.145580 0.004649 1.000000
v 0.162245 0.498732 1.005773
v 0.162245 0.498732 1.000000
v -0.146474 0.500167 1.005773
v -0.146474 0.500167 1.000000
v -0.146474 0.003214 1.005773
v -0.146474 0.003214 1.000000
v 0.163138 0.003214 1.005773
v 0.163138 0.003214 1.000000
vn 0.0000 1.0000 -0.0000
vn 0.0000 -1.0000 0.0000
vn -1.0000 0.0000 -0.0000
vn 0.0000 0.0000 -1.0000
vn 1.0000 0.0000 0.0000
vn -0.0000 -0.0000 1.0000
usemtl Material
s off
f 1//1 4//1 3//1 2//1
f 5//2 6//2 7//2 8//2
f 1//3 2//3 6//3 5//3
f 2//4 32//4 22//4 28//4 3//4 7//4 6//4
f 3//5 4//5 8//5 7//5
f 5//6 8//6 4//6 1//6
f 9//2 10//2 11//2 12//2
f 13//1 16//1 15//1 14//1
f 9//5 13//5 14//5 10//5
f 10//6 14//6 15//6 11//6 29//6 27//6 21//6
f 11//3 15//3 16//3 12//3
f 13//4 9//4 12//4 16//4
f 3//4 28//4 30//4 32//4 2//4
f 22//2 21//2 27//2 28//2
f 17//3 18//3 24//3 23//3
f 32//3 31//3 21//3 22//3
f 18//1 17//1 25//1 26//1
f 21//6 31//6 29//6 11//6 10//6
f 26//5 25//5 19//5 20//5
f 29//5 30//5 28//5 27//5
f 20//2 19//2 23//2 24//2
f 30//1 29//1 31//1 32//1
